<!DOCTYPE svg PUBLIC "-//W3C//DTD SVG 1.1//EN" "http://www.w3.org/Graphics/SVG/1.1/DTD/svg11.dtd">
<!-- Uploaded to: SVG Repo, www.svgrepo.com, Transformed by: SVG Repo Mixer Tools -->
<svg version="1.1" id="Icons" xmlns="http://www.w3.org/2000/svg" xmlns:xlink="http://www.w3.org/1999/xlink" viewBox="0 0 32 32" xml:space="preserve" width="800px" height="800px" fill="#00aa9b">
<g id="SVGRepo_bgCarrier" stroke-width="0"/>
<g id="SVGRepo_tracerCarrier" stroke-linecap="round" stroke-linejoin="round"/>
<g id="SVGRepo_iconCarrier"> <style type="text/css"> .st0{fill:none;stroke:#00aa9b;stroke-width:2;stroke-linecap:round;stroke-linejoin:round;stroke-miterlimit:10;} </style> <path class="st0" d="M25,13L25,13c-5.9,1.3-12.1,1.3-18,0l0,0l1.8-7.3l0,0c4.6-2.2,9.8-2.2,14.4,0l0,0L25,13z"/> <path class="st0" d="M23.2,16.8c0.6-0.7,1.2-1,1.8-0.8c0.9,0.4,1.2,2,0.7,3.6c-0.5,1.6-1.7,2.7-2.6,2.3c0,0-0.1,0-0.1-0.1 c-0.8,3.5-3.6,6.1-7,6.1s-6.3-2.6-7-6.1c0,0-0.1,0.1-0.1,0.1c-0.9,0.4-2.1-0.7-2.6-2.3C5.7,18,6,16.4,7,16c0.6-0.2,1.3,0.1,1.8,0.8"/> <line class="st0" x1="16" y1="7" x2="16" y2="11"/> <line class="st0" x1="14" y1="9" x2="18" y2="9"/> </g>
</svg>